<?xml version="1.0" standalone="no"?><!DOCTYPE svg PUBLIC "-//W3C//DTD SVG 1.1//EN"
        "http://www.w3.org/Graphics/SVG/1.1/DTD/svg11.dtd">
<svg t="1593182737538" class="icon" viewBox="0 0 1024 1024" version="1.1" xmlns="http://www.w3.org/2000/svg" p-id="3217"
     width="200" height="200">
    <defs>
        <style type="text/css">html, * { user-select: text !important; }
        </style>
    </defs>
    <path d="M681.984 553.984q56.021333 0 121.984 16t121.984 52.010667 56.021333 82.005333l0 105.984-256 0 0-105.984q0-88.021333-84.010667-148.010667 13.994667-2.005333 40.021333-2.005333zM342.016 553.984q56.021333 0 121.984 16t121.002667 52.010667 54.997333 82.005333l0 105.984-598.016 0 0-105.984q0-45.994667 56.021333-82.005333t121.984-52.010667 121.984-16zM342.016 470.016q-52.010667 0-89.984-38.016t-38.016-89.984 38.016-89.984 89.984-38.016 89.002667 38.016 36.992 89.984-36.992 89.984-89.002667 38.016zM681.984 470.016q-52.010667 0-89.984-38.016t-38.016-89.984 38.016-89.984 89.984-38.016 89.984 38.016 38.016 89.984-38.016 89.984-89.984 38.016z"
          p-id="3218" fill="#555555"/>
</svg>