<?xml version="1.0" standalone="no"?><!DOCTYPE svg PUBLIC "-//W3C//DTD SVG 1.1//EN"
        "http://www.w3.org/Graphics/SVG/1.1/DTD/svg11.dtd">
<svg class="icon" viewBox="0 0 1024 1024" version="1.1" xmlns="http://www.w3.org/2000/svg"
     width="200" height="200">
    <defs>
        <style type="text/css"/>
    </defs>
    <path d="M510.973624 140.324956c102.866832 0 186.251961 82.024132 186.251961 183.192276 0 101.189633-83.384106 183.217858-186.251961 183.217858-102.862739 0-186.246845-82.028225-186.246845-183.217858C324.725756 222.325551 408.138514 140.324956 510.973624 140.324956L510.973624 140.324956 510.973624 140.324956 510.973624 140.324956z"
          fill="#555555"/>
    <path d="M430.147784 556.559868l163.703409 0c140.123364 0 253.700119 92.656283 253.700119 230.494605l0 16.07614c0 54.31914-113.601314 80.543408-253.700119 80.543408L430.147784 883.674021c-140.127458 0-253.700119-24.239054-253.700119-80.543408l0-16.07614C176.449711 649.216151 290.02135 556.559868 430.147784 556.559868L430.147784 556.559868 430.147784 556.559868 430.147784 556.559868z"
          fill="#555555"/>
</svg>